<svg width="24" height="24" viewBox="0 0 24 24" fill="none" xmlns="http://www.w3.org/2000/svg">
<path d="M22.8969 12.0008L23.9498 9.2545C24.0653 8.95152 23.9753 8.60805 23.7218 8.40256L21.439 6.55169L20.977 3.64638C20.926 3.32541 20.674 3.07492 20.353 3.02393L17.4477 2.56196L15.5984 0.277612C15.3944 0.0241296 15.0434 -0.0658643 14.7479 0.0496279L12.0001 1.10406L9.25379 0.0511278C8.94931 -0.0658643 8.60883 0.0271294 8.40335 0.279112L6.55247 2.56346L3.64717 3.02543C3.32769 3.07642 3.07571 3.32841 3.02471 3.64788L2.56274 6.55319L0.278399 8.40406C0.0264163 8.60805 -0.0650775 8.95152 0.0504146 9.2545L1.10334 12.0008L0.0504146 14.7471C-0.0665774 15.0501 0.0264163 15.3936 0.278399 15.5976L2.56274 17.4469L3.02471 20.3522C3.07571 20.6732 3.32619 20.9252 3.64717 20.9762L6.55247 21.4382L8.40335 23.721C8.60883 23.976 8.95231 24.066 9.25529 23.949L12.0001 22.8976L14.7464 23.9505C14.8334 23.9835 14.9234 24 15.0149 24C15.2354 24 15.4529 23.9025 15.5984 23.721L17.4477 21.4382L20.353 20.9762C20.674 20.9252 20.926 20.6732 20.977 20.3522L21.439 17.4469L23.7218 15.5976C23.9753 15.3921 24.0653 15.0501 23.9498 14.7471L22.8969 12.0008Z" fill="#CE2D4F"/>
</svg>
